<?xml version="1.0" encoding="UTF-8"?>
<svg xmlns="http://www.w3.org/2000/svg" xmlns:xlink="http://www.w3.org/1999/xlink" width="15pt" height="15pt" viewBox="0 0 15 15" version="1.1">
<g id="surface1">
<path style=" stroke:none;fill-rule:nonzero;fill:rgb(0%,0%,0%);fill-opacity:1;" d="M 4.960938 5.945312 C 5.316406 5.945312 5.640625 5.976562 5.933594 6.039062 C 6.222656 6.101562 6.472656 6.203125 6.683594 6.347656 C 6.890625 6.488281 7.050781 6.679688 7.164062 6.914062 C 7.28125 7.148438 7.335938 7.441406 7.335938 7.789062 C 7.335938 8.164062 7.25 8.472656 7.082031 8.726562 C 6.910156 8.972656 6.660156 9.179688 6.320312 9.335938 C 6.78125 9.46875 7.117188 9.699219 7.34375 10.027344 C 7.566406 10.359375 7.679688 10.753906 7.679688 11.21875 C 7.679688 11.597656 7.605469 11.921875 7.460938 12.195312 C 7.316406 12.46875 7.121094 12.695312 6.875 12.867188 C 6.628906 13.039062 6.347656 13.167969 6.03125 13.253906 C 5.714844 13.335938 5.390625 13.378906 5.058594 13.378906 L 1.460938 13.378906 L 1.460938 5.945312 Z M 4.75 8.945312 C 5.042969 8.945312 5.28125 8.878906 5.472656 8.738281 C 5.660156 8.601562 5.75 8.375 5.75 8.0625 C 5.75 7.890625 5.722656 7.746094 5.660156 7.632812 C 5.59375 7.523438 5.515625 7.4375 5.40625 7.375 C 5.304688 7.3125 5.1875 7.269531 5.046875 7.246094 C 4.914062 7.21875 4.773438 7.207031 4.625 7.207031 L 3.097656 7.207031 L 3.097656 8.945312 Z M 4.84375 12.109375 C 5.003906 12.109375 5.15625 12.097656 5.304688 12.0625 C 5.449219 12.03125 5.578125 11.980469 5.6875 11.90625 C 5.796875 11.832031 5.890625 11.734375 5.957031 11.609375 C 6.023438 11.484375 6.054688 11.324219 6.054688 11.128906 C 6.054688 10.746094 5.945312 10.476562 5.730469 10.308594 C 5.515625 10.144531 5.230469 10.066406 4.878906 10.066406 L 3.101562 10.066406 L 3.101562 12.109375 Z M 4.84375 12.109375 "/>
<path style=" stroke:none;fill-rule:nonzero;fill:rgb(0%,0%,0%);fill-opacity:1;" d="M 10.015625 12.085938 C 10.238281 12.300781 10.554688 12.410156 10.96875 12.410156 C 11.265625 12.410156 11.527344 12.335938 11.738281 12.183594 C 11.953125 12.035156 12.085938 11.875 12.136719 11.707031 L 13.4375 11.707031 C 13.226562 12.355469 12.90625 12.816406 12.476562 13.09375 C 12.050781 13.375 11.527344 13.515625 10.917969 13.515625 C 10.496094 13.515625 10.113281 13.445312 9.769531 13.308594 C 9.429688 13.171875 9.144531 12.980469 8.902344 12.734375 C 8.667969 12.480469 8.488281 12.183594 8.359375 11.835938 C 8.230469 11.492188 8.164062 11.105469 8.164062 10.691406 C 8.164062 10.289062 8.234375 9.910156 8.363281 9.566406 C 8.5 9.21875 8.683594 8.914062 8.925781 8.664062 C 9.171875 8.40625 9.460938 8.210938 9.800781 8.0625 C 10.136719 7.914062 10.507812 7.84375 10.921875 7.84375 C 11.375 7.84375 11.773438 7.929688 12.117188 8.109375 C 12.457031 8.285156 12.734375 8.523438 12.957031 8.820312 C 13.175781 9.121094 13.332031 9.460938 13.425781 9.839844 C 13.523438 10.222656 13.558594 10.621094 13.53125 11.039062 L 9.648438 11.039062 C 9.648438 11.46875 9.789062 11.871094 10.015625 12.085938 Z M 11.710938 9.261719 C 11.535156 9.066406 11.238281 8.960938 10.875 8.960938 C 10.636719 8.960938 10.445312 9.003906 10.285156 9.082031 C 10.132812 9.160156 10.007812 9.261719 9.910156 9.378906 C 9.8125 9.5 9.75 9.625 9.710938 9.757812 C 9.671875 9.886719 9.648438 10.003906 9.644531 10.109375 L 12.050781 10.109375 C 12.015625 9.734375 11.890625 9.457031 11.710938 9.261719 Z M 11.710938 9.261719 "/>
<path style=" stroke:none;fill-rule:nonzero;fill:rgb(0%,0%,0%);fill-opacity:1;" d="M 9.34375 6.445312 L 12.359375 6.445312 L 12.359375 7.179688 L 9.34375 7.179688 Z M 9.34375 6.445312 "/>
</g>
</svg>
