<?xml version="1.0" encoding="UTF-8"?>
<svg xmlns="http://www.w3.org/2000/svg" xmlns:xlink="http://www.w3.org/1999/xlink" width="15pt" height="15pt" viewBox="0 0 15 15" version="1.1">
<g id="surface1">
<path style=" stroke:none;fill-rule:nonzero;fill:rgb(0%,0%,0%);fill-opacity:1;" d="M 9.03125 14.898438 C 8.960938 14.898438 8.914062 14.90625 8.867188 14.90625 C 7.863281 14.90625 6.863281 14.902344 5.863281 14.910156 C 5.722656 14.910156 5.683594 14.871094 5.683594 14.730469 C 5.6875 12.398438 5.6875 10.0625 5.6875 7.730469 C 5.6875 7.667969 5.6875 7.609375 5.6875 7.53125 C 5.140625 7.53125 4.613281 7.53125 4.074219 7.53125 C 4.074219 6.695312 4.074219 5.878906 4.074219 5.039062 C 4.128906 5.039062 4.179688 5.039062 4.230469 5.039062 C 4.671875 5.039062 5.109375 5.035156 5.550781 5.042969 C 5.660156 5.042969 5.691406 5.007812 5.691406 4.902344 C 5.683594 4.246094 5.683594 3.589844 5.691406 2.9375 C 5.691406 2.480469 5.765625 2.035156 5.976562 1.621094 C 6.277344 1.039062 6.757812 0.660156 7.359375 0.425781 C 7.851562 0.234375 8.371094 0.164062 8.890625 0.15625 C 9.742188 0.144531 10.589844 0.148438 11.441406 0.144531 C 11.519531 0.144531 11.585938 0.144531 11.585938 0.253906 C 11.582031 1.058594 11.582031 1.867188 11.582031 2.671875 C 11.582031 2.679688 11.578125 2.6875 11.566406 2.726562 C 11.515625 2.726562 11.460938 2.726562 11.40625 2.726562 C 10.878906 2.726562 10.351562 2.726562 9.824219 2.726562 C 9.519531 2.726562 9.273438 2.851562 9.117188 3.117188 C 9.070312 3.195312 9.039062 3.296875 9.039062 3.390625 C 9.03125 3.890625 9.039062 4.390625 9.035156 4.886719 C 9.035156 5.003906 9.070312 5.035156 9.183594 5.035156 C 9.917969 5.03125 10.648438 5.03125 11.382812 5.03125 C 11.441406 5.03125 11.496094 5.03125 11.59375 5.03125 C 11.492188 5.871094 11.394531 6.691406 11.292969 7.519531 C 10.53125 7.519531 9.789062 7.519531 9.03125 7.519531 C 9.03125 9.984375 9.03125 12.433594 9.03125 14.898438 Z M 9.03125 14.898438 "/>
</g>
</svg>
