<?xml version="1.0" encoding="UTF-8"?>
<svg xmlns="http://www.w3.org/2000/svg" xmlns:xlink="http://www.w3.org/1999/xlink" width="15pt" height="15pt" viewBox="0 0 15 15" version="1.1">
<g id="surface1">
<path style=" stroke:none;fill-rule:nonzero;fill:rgb(0%,0%,0%);fill-opacity:1;" d="M 9.285156 0.355469 C 9.285156 0.355469 6.007812 0.355469 4.882812 0.355469 C 2.867188 0.355469 0.972656 1.769531 0.972656 3.539062 C 0.972656 5.34375 2.34375 6.746094 4.394531 6.746094 C 4.539062 6.746094 4.675781 6.714844 4.8125 6.703125 C 4.675781 6.957031 4.585938 7.230469 4.585938 7.527344 C 4.585938 8.03125 4.851562 8.433594 5.195312 8.765625 C 4.9375 8.765625 4.6875 8.769531 4.414062 8.769531 C 1.921875 8.769531 0 10.355469 0 12.003906 C 0 13.628906 2.105469 14.644531 4.601562 14.644531 C 7.445312 14.644531 9.015625 13.027344 9.015625 11.40625 C 9.015625 10.105469 8.632812 9.324219 7.445312 8.484375 C 7.039062 8.195312 6.265625 7.496094 6.265625 7.085938 C 6.265625 6.605469 6.402344 6.367188 7.125 5.800781 C 7.867188 5.21875 8.394531 4.527344 8.394531 3.578125 C 8.394531 2.449219 7.910156 1.070312 6.964844 1.070312 L 8.570312 1.070312 Z M 7.808594 11.125 C 7.84375 11.273438 7.863281 11.429688 7.863281 11.585938 C 7.863281 12.898438 7.015625 13.921875 4.589844 13.921875 C 2.867188 13.921875 1.621094 12.832031 1.621094 11.519531 C 1.621094 10.234375 3.167969 9.164062 4.890625 9.183594 C 5.292969 9.1875 5.667969 9.253906 6.007812 9.363281 C 6.945312 10.015625 7.617188 10.382812 7.808594 11.125 Z M 5.046875 6.230469 C 3.886719 6.199219 2.785156 4.9375 2.585938 3.417969 C 2.386719 1.894531 3.164062 0.730469 4.320312 0.765625 C 5.480469 0.800781 6.582031 2.023438 6.78125 3.542969 C 6.980469 5.0625 6.203125 6.265625 5.046875 6.230469 Z M 5.046875 6.230469 "/>
<path style=" stroke:none;fill-rule:nonzero;fill:rgb(0%,0%,0%);fill-opacity:1;" d="M 12.855469 6.066406 L 12.855469 3.921875 L 11.429688 3.921875 L 11.429688 6.066406 L 9.285156 6.066406 L 9.285156 7.496094 L 11.429688 7.496094 L 11.429688 9.636719 L 12.855469 9.636719 L 12.855469 7.496094 L 15 7.496094 L 15 6.066406 Z M 12.855469 6.066406 "/>
</g>
</svg>
