<?xml version="1.0" encoding="UTF-8"?>
<svg xmlns="http://www.w3.org/2000/svg" xmlns:xlink="http://www.w3.org/1999/xlink" width="15pt" height="15pt" viewBox="0 0 15 15" version="1.1">
<g id="surface1">
<path style=" stroke:none;fill-rule:nonzero;fill:rgb(0%,0%,0%);fill-opacity:1;" d="M 5.082031 14.902344 C 5.082031 14.832031 5.082031 14.765625 5.082031 14.699219 C 5.082031 11.542969 5.082031 8.390625 5.082031 5.234375 C 5.082031 5.148438 5.078125 5.078125 5.207031 5.078125 C 6.136719 5.082031 7.070312 5.078125 8.003906 5.078125 C 8.027344 5.078125 8.050781 5.085938 8.089844 5.089844 C 8.089844 5.5 8.089844 5.90625 8.089844 6.3125 C 8.101562 6.316406 8.109375 6.320312 8.121094 6.324219 C 8.238281 6.171875 8.351562 6.015625 8.472656 5.867188 C 8.828125 5.425781 9.277344 5.105469 9.804688 4.910156 C 10.09375 4.804688 10.40625 4.742188 10.707031 4.726562 C 11.125 4.707031 11.546875 4.714844 11.960938 4.785156 C 12.632812 4.898438 13.226562 5.195312 13.71875 5.6875 C 14.1875 6.148438 14.492188 6.699219 14.660156 7.324219 C 14.75 7.65625 14.804688 7.996094 14.855469 8.332031 C 14.890625 8.566406 14.910156 8.804688 14.910156 9.039062 C 14.914062 10.945312 14.914062 12.851562 14.914062 14.753906 C 14.914062 14.800781 14.910156 14.847656 14.90625 14.910156 C 14.851562 14.910156 14.804688 14.910156 14.757812 14.910156 C 13.859375 14.910156 12.960938 14.90625 12.0625 14.914062 C 11.914062 14.914062 11.886719 14.863281 11.886719 14.726562 C 11.890625 12.976562 11.894531 11.222656 11.882812 9.46875 C 11.878906 9.160156 11.851562 8.84375 11.773438 8.546875 C 11.628906 8.027344 11.300781 7.652344 10.777344 7.460938 C 10.339844 7.300781 9.894531 7.273438 9.441406 7.386719 C 8.945312 7.511719 8.601562 7.84375 8.34375 8.28125 C 8.144531 8.617188 8.105469 8.988281 8.101562 9.359375 C 8.09375 11.140625 8.097656 12.914062 8.097656 14.691406 C 8.097656 14.757812 8.097656 14.828125 8.097656 14.898438 C 7.085938 14.902344 6.09375 14.902344 5.082031 14.902344 Z M 5.082031 14.902344 "/>
<path style=" stroke:none;fill-rule:nonzero;fill:rgb(0%,0%,0%);fill-opacity:1;" d="M 3.195312 10.039062 C 3.195312 11.597656 3.195312 13.160156 3.199219 14.722656 C 3.199219 14.863281 3.167969 14.914062 3.015625 14.914062 C 2.121094 14.902344 1.226562 14.902344 0.332031 14.914062 C 0.1875 14.914062 0.15625 14.863281 0.15625 14.726562 C 0.15625 11.589844 0.15625 8.449219 0.15625 5.3125 C 0.15625 5.1875 0.191406 5.140625 0.320312 5.140625 C 1.222656 5.148438 2.125 5.148438 3.027344 5.140625 C 3.167969 5.140625 3.195312 5.195312 3.195312 5.320312 C 3.195312 6.894531 3.195312 8.46875 3.195312 10.039062 Z M 3.195312 10.039062 "/>
<path style=" stroke:none;fill-rule:nonzero;fill:rgb(0%,0%,0%);fill-opacity:1;" d="M 1.644531 0.140625 C 2.609375 0.117188 3.183594 0.816406 3.1875 1.675781 C 3.191406 2.554688 2.574219 3.210938 1.609375 3.207031 C 0.710938 3.207031 0.0742188 2.5625 0.078125 1.652344 C 0.078125 0.800781 0.695312 0.109375 1.644531 0.140625 Z M 1.644531 0.140625 "/>
</g>
</svg>
