<svg xmlns="http://www.w3.org/2000/svg" viewBox="0 0 297 83.40425622">
  <defs/>
  <rect width="100%" height="100%" fill="none"/>
  <g class="currentLayer">
    <path fill="#fff" d="M1.20076488 81.65817421c.6352182-2.31663425 4.75417661-15.52563269 5.93381738-19.0290771 6.16780758-18.31766519 12.16072369-30.74457818 17.44763947-36.17932879 1.25000703-1.28496713 3.28444505-2.75850047 4.52466488-3.27718818 1.01554095-.42472099 1.42237496-.50749414 2.50072288-.50868734 1.85672999-.00259396 2.73815394.42202326 4.35887814 2.0973802 1.86870897 1.93167846 3.07145 3.70028788 8.30872822 12.21787286 6.97506904 11.34377257 8.32204055 13.37183322 10.42648792 15.69816796 2.25098991 2.48840598 4.66346788 4.1060736 7.12090397 4.77485957 1.63261103.44434423 4.50218391.55051486 6.40135097.23684096 3.86999107-.63916332 7.01925278-2.5046831 12.21887398-7.23805335 5.5599308-5.06136108 11.01669216-9.42056496 13.92522812-11.12437794 4.54271984-2.66112455 9.1488142-2.85486666 13.67127418-.57501485 4.2203002 2.12750961 7.8137002 5.47713444 13.64161969 12.71618398 5.6626501 7.0337138 8.28979969 9.63199768 11.4572897 11.33140183 2.6045699 1.39738892 5.00649022 1.41147385 7.92128991.04643178 4.33304024-2.02922386 7.63925982-6.64181697 11.99508-16.73465835.86497003-2.0042309 3.27620005-8.06609363 5.35826015-13.4707243 9.15272999-23.75884303 11.9068098-29.56908237 14.90606022-31.44700977 1.70042002-1.06471432 4.28942013-.59090262 6.01538992 1.10082202 2.80279994 2.74729593 5.73085022 9.33720834 12.35779 27.81275176 6.75380992 18.82922555 8.98472022 24.28017547 11.78236007 28.78894482 1.90311003 3.06707783 3.2709601 4.28727414 5.33983994 4.76338198 4.53261995 1.04313243 7.17152977-1.17089774 11.49429035-9.64351595 1.51769995-2.97470725 2.36319995-4.77578037 5.56545019-11.855821 3.62327003-8.01093234 5.36464977-11.46528587 7.2667098-14.41473023 3.17750001-4.92724169 6.08117009-6.43771386 9.23145962-4.80214656 2.4326899 1.26300936 4.89489985 4.93176656 11.40277958 16.99051554 4.5857501 8.49720785 9.45151997 16.43784518 12.40017033 20.23644661 4.98883009 6.4268317 14.15767955 13.92853389 21.89678001 17.91531461.97174.50055526 3.5573399 1.61962597 5.74580002 2.48674521l3.97899008 1.5765792-148.36642456.00648488-148.3664093.00648488z"/>
  </g>
</svg>
