<?xml version="1.0" encoding="UTF-8"?>
<svg xmlns="http://www.w3.org/2000/svg" xmlns:xlink="http://www.w3.org/1999/xlink" width="15pt" height="15pt" viewBox="0 0 15 15" version="1.1">
<g id="surface1">
<path style=" stroke:none;fill-rule:nonzero;fill:rgb(0%,0%,0%);fill-opacity:1;" d="M 10.988281 12.898438 C 10.925781 12.53125 10.605469 10.75 9.808594 8.566406 C 11.765625 8.25 13.464844 8.789062 13.589844 8.832031 C 13.457031 9.652344 13.160156 10.433594 12.710938 11.132812 C 12.265625 11.835938 11.679688 12.433594 10.988281 12.898438 Z M 7.597656 13.933594 C 6.1875 13.9375 4.820312 13.445312 3.730469 12.542969 C 3.8125 12.609375 3.867188 12.648438 3.867188 12.648438 C 3.867188 12.648438 5.03125 10.113281 8.632812 8.859375 C 8.644531 8.855469 8.65625 8.851562 8.671875 8.847656 C 9.527344 11.066406 9.878906 12.921875 9.96875 13.453125 C 9.21875 13.773438 8.414062 13.9375 7.597656 13.933594 Z M 1.53125 7.867188 C 1.53125 7.800781 1.535156 7.738281 1.535156 7.675781 C 1.640625 7.675781 4.640625 7.746094 7.765625 6.808594 C 7.9375 7.148438 8.105469 7.496094 8.257812 7.84375 C 8.175781 7.863281 8.097656 7.886719 8.019531 7.914062 C 4.742188 8.972656 3.082031 11.917969 3.082031 11.917969 L 3.085938 11.921875 C 2.082031 10.808594 1.527344 9.363281 1.53125 7.867188 Z M 5.007812 2.378906 C 5.828125 3.5 6.578125 4.667969 7.261719 5.875 C 4.351562 6.648438 1.820312 6.621094 1.660156 6.617188 C 1.855469 5.699219 2.257812 4.839844 2.835938 4.105469 C 3.417969 3.371094 4.160156 2.78125 5.007812 2.378906 Z M 6.144531 1.976562 L 6.125 1.980469 Z M 11.605469 3.3125 C 11.589844 3.335938 10.726562 4.652344 8.4375 5.511719 C 7.761719 4.28125 7.003906 3.097656 6.167969 1.96875 C 7.117188 1.738281 8.105469 1.738281 9.054688 1.972656 C 10 2.207031 10.875 2.667969 11.605469 3.3125 Z M 13.664062 7.804688 C 13.578125 7.785156 11.523438 7.34375 9.4375 7.605469 L 9.308594 7.296875 C 9.179688 6.996094 9.046875 6.703125 8.902344 6.414062 C 11.300781 5.433594 12.273438 4.03125 12.285156 4.011719 C 13.164062 5.082031 13.652344 6.421875 13.664062 7.804688 Z M 14.558594 6.4375 C 14.464844 5.980469 14.328125 5.53125 14.144531 5.101562 C 13.609375 3.832031 12.714844 2.746094 11.570312 1.976562 C 11.191406 1.71875 10.785156 1.5 10.363281 1.320312 C 9.488281 0.949219 8.546875 0.761719 7.597656 0.761719 C 6.648438 0.761719 5.707031 0.949219 4.832031 1.320312 C 3.5625 1.859375 2.476562 2.75 1.707031 3.894531 C 0.914062 5.066406 0.492188 6.449219 0.492188 7.867188 C 0.492188 8.816406 0.679688 9.757812 1.050781 10.632812 C 1.230469 11.054688 1.449219 11.460938 1.707031 11.839844 C 2.476562 12.980469 3.5625 13.875 4.832031 14.414062 C 5.261719 14.59375 5.710938 14.734375 6.167969 14.828125 C 7.574219 15.117188 9.039062 14.972656 10.363281 14.414062 C 10.785156 14.234375 11.191406 14.015625 11.570312 13.757812 C 11.949219 13.503906 12.300781 13.210938 12.621094 12.890625 C 13.457031 12.0625 14.066406 11.035156 14.40625 9.910156 C 14.742188 8.78125 14.796875 7.589844 14.558594 6.4375 Z M 14.558594 6.4375 "/>
</g>
</svg>
