<?xml version="1.0" encoding="UTF-8"?>
<svg xmlns="http://www.w3.org/2000/svg" xmlns:xlink="http://www.w3.org/1999/xlink" width="15pt" height="15pt" viewBox="0 0 15 15" version="1.1">
<g id="surface1">
<path style=" stroke:none;fill-rule:nonzero;fill:rgb(0%,0%,0%);fill-opacity:1;" d="M 0.117188 12.90625 C 1.746094 13.050781 3.214844 12.640625 4.550781 11.640625 C 3.152344 11.515625 2.21875 10.820312 1.695312 9.511719 C 2.152344 9.570312 2.582031 9.582031 3.035156 9.460938 C 1.53125 8.992188 0.726562 8.007812 0.617188 6.417969 C 1.070312 6.628906 1.496094 6.78125 1.996094 6.789062 C 1.101562 6.117188 0.644531 5.246094 0.664062 4.152344 C 0.671875 3.648438 0.804688 3.171875 1.074219 2.726562 C 2.726562 4.660156 4.804688 5.734375 7.363281 5.914062 C 7.347656 5.800781 7.339844 5.710938 7.328125 5.621094 C 7.117188 4 8.171875 2.523438 9.78125 2.214844 C 10.792969 2.023438 11.6875 2.289062 12.441406 2.984375 C 12.558594 3.089844 12.660156 3.113281 12.804688 3.078125 C 13.394531 2.925781 13.953125 2.710938 14.496094 2.417969 C 14.289062 3.101562 13.859375 3.617188 13.28125 4.050781 C 13.414062 4.027344 13.546875 4.011719 13.679688 3.984375 C 13.816406 3.953125 13.953125 3.921875 14.09375 3.882812 C 14.222656 3.851562 14.351562 3.808594 14.480469 3.765625 C 14.613281 3.71875 14.746094 3.671875 14.902344 3.644531 C 14.824219 3.75 14.75 3.863281 14.667969 3.964844 C 14.328125 4.394531 13.9375 4.773438 13.507812 5.109375 C 13.460938 5.144531 13.425781 5.222656 13.425781 5.273438 C 13.449219 6.3125 13.304688 7.328125 12.96875 8.3125 C 12.304688 10.25 11.152344 11.820312 9.417969 12.941406 C 8.5625 13.496094 7.628906 13.859375 6.628906 14.070312 C 5.640625 14.28125 4.644531 14.316406 3.644531 14.199219 C 2.644531 14.082031 1.691406 13.785156 0.792969 13.324219 C 0.558594 13.203125 0.328125 13.070312 0.0976562 12.941406 C 0.105469 12.929688 0.109375 12.917969 0.117188 12.90625 Z M 0.117188 12.90625 "/>
</g>
</svg>
